# xmcd
#
# Track frame offsets: 
#        150
#        12505
#        33112
#        52557
#        96685
#        112452
#        147447
#        179497
#        195645
#        212362
#        227557
#        242807
#        260417
#        276800
#        291292
#        307475
#
# Disc length: 4319 seconds
#
# Revision: 0
# Processed by: cddbd v1.5.2PL0 Copyright (c) Steve Scherf et al.
# Submitted via: ExactAudioCopy v1.0b3
#
DISCID=f510dd10
DTITLE=Muddy Waters And Alberta Hunter - Muddy Waters E Alberta Hunter
DTITLE=Coleção Frente A Frente
DYEAR=1900
DGENRE=Blues
TTITLE0=Hard Day Blues
TTITLE1=Mannish Boy
TTITLE2=Baby Please Don´t Go
TTITLE3=Deep Down In Florida
TTITLE4=I Can´t Be Satisfied
TTITLE5=Bus Driver
TTITLE6=Little Girl
TTITLE7=The Blues Had A Baby And They Named It Rock And Roll
TTITLE8=Alberta Hunter - Always
TTITLE9=Alberta Hunter - Amtrack Blues
TTITLE10=Alberta Hunter - The Glory Of Love
TTITLE11=Alberta Hunter - I Cried For You
TTITLE12=Alberta Hunter - Remember My Name
TTITLE13=Alberta Hunter - Without Rhythm
TTITLE14=Alberta Hunter - Look For The Silver Lining
TTITLE15=Alberta Hunter - The Love I Have For You
EXTD=
EXTT0=
EXTT1=
EXTT2=
EXTT3=
EXTT4=
EXTT5=
EXTT6=
EXTT7=
EXTT8=
EXTT9=
EXTT10=
EXTT11=
EXTT12=
EXTT13=
EXTT14=
EXTT15=
PLAYORDER=
